<?xml version="1.0" encoding="utf-8"?>
<!-- Generator: Adobe Illustrator 28.0.0, SVG Export Plug-In . SVG Version: 6.00 Build 0)  -->
<svg version="1.1" id="layer1" xmlns="http://www.w3.org/2000/svg" xmlns:xlink="http://www.w3.org/1999/xlink" x="0px" y="0px"
	 width="177.9px" height="51.9px" viewBox="0 0 177.9 51.9" enable-background="new 0 0 177.9 51.9" xml:space="preserve">
<g>
	<path fill="#004896" d="M31,0.4v30.5L13.2,0.4h-13v51.3h12.9V21l17.8,30.7h13V0.4H31z"/>
	<rect x="51.6" y="0.4" fill="#004896" width="12.4" height="51.3"/>
	<rect x="165.4" y="0.4" fill="#004896" width="12.4" height="51.3"/>
	<path fill="#004896" d="M145.2,0.4V19h-13V0.4h-12.4v51.3h12.4V33.8h13v17.9h12.4V0.4H145.2z"/>
	<path fill="#004896" d="M96,17.7h14.4c0.7-5.4-1.7-10.7-6.3-13.7c-6.7-4.5-15.2-5.2-22.5-1.8c-5.6,2.5-9.2,7.9-9.4,14
		c-0.1,6.2,3.9,11.7,9.8,13.4c6.6,1.9,5.4,1.6,9.4,2.7c4,1.1,5.4,2.6,5.4,4.5c0,1.9-2.5,3.2-5.3,3.2c-2.6-0.1-4.8-1.9-5.5-4.5
		l-0.2-2H71.4c0,0-0.8,11.1,8.2,15.8c9,4.7,20.6,2.4,24.2-0.2s9.3-5.9,7.6-17.2c0,0-0.2-5.3-8-9.5c-2.1-1-4.4-1.7-6.7-2.2
		c-5-1.3-9.3-2.3-9.3-5.4s3.7-3.2,5-2.9S96.6,13.5,96,17.7"/>
</g>
</svg>
